<svg xmlns="http://www.w3.org/2000/svg" viewBox="0 0 96 96"><path d="M88,37H56.6724L86.1118,26.2891a1.0056,1.0056,0,0,0,.5972-1.2842l-.687-1.87A3.0049,3.0049,0,0,0,82.1782,21.33L51,32.6774V16a3,3,0,0,0-6,0V33H10a3.0033,3.0033,0,0,0-3,3v1.1419A3.9968,3.9968,0,0,0,8,45H9.2673L19.7251,78.1064A6.9724,6.9724,0,0,0,26.4,83H69.6a7.0259,7.0259,0,0,0,6.6733-4.89L86.7327,45c1.4426.0741,3.0562-.0328,4.0944-1.173A4.0174,4.0174,0,0,0,88,37ZM51,34.8055,82.8633,23.209a.995.995,0,0,1,1.2778.6055l.3447.9384L51,36.9362ZM47,16a1,1,0,0,1,2,0V40a1,1,0,0,1-2,0ZM9,36a1.0009,1.0009,0,0,1,1-1H45v2H9ZM83.7756,47.7213l-.8566-.7195,1.4749-1.2379ZM73.5162,79.105,73.391,79l.48-.4025A4.894,4.894,0,0,1,73.5162,79.105ZM66.2344,81l-2.3827-1.9995,3.2155-2.6974L70.2813,79l-2.3851,2Zm-9.53,0-2.3832-2,3.21-2.6933L60.74,79l-2.3839,2Zm-9.53,0-2.3834-2L48,76.3067,51.2094,79,48.826,81Zm-9.53,0L35.26,79l3.21-2.6936L41.6791,79l-2.3832,2Zm-9.54,0-2.3847-2,3.2137-2.6969,3.2155,2.6974L29.7656,81ZM11.6061,45.7639l1.4749,1.2379-.8566.7195Zm3.03,2.543L17.8458,51,14.635,53.6956l-.7122-.5976-1.0466-3.3131ZM78.6379,63.9853l-2.0388,1.71-3.2114-2.695,3.2109-2.6943L79.1293,62.43ZM71.8372,77.6959l-3.2145-2.6977,3.21-2.6928,3.2154,2.6984Zm-4.77-4.0033-3.21-2.6942,3.21-2.6932L70.2768,71Zm-46.1138,1.31,3.2143-2.6975,3.21,2.6928-3.2138,2.6972ZM25.7232,71l3.2106-2.6945,3.21,2.6932-3.21,2.6942Zm-8.3613-7.0146L16.8705,62.43l2.5309-2.1234,3.2109,2.6943-3.2114,2.695ZM63.8561,63l3.21-2.6936L70.2764,63l-3.21,2.6935ZM65.51,67l-3.21,2.6933-3.21-2.6939L62.3,64.3056ZM62.3,61.6941l-3.2094-2.6933,3.21-2.6935L65.51,59.0005ZM60.7443,63,57.535,65.6932,54.3256,63l3.2094-2.6933ZM55.98,66.9985,52.765,69.6964l-3.2094-2.6935L52.77,64.3051Zm-3.21-5.3041-3.2146-2.6978,3.2094-2.6933,3.2146,2.6978ZM51.2147,63,48,65.6975,44.7853,63,48,60.3019Zm-4.77,4.0032L43.235,69.6964,40.02,66.9985,43.23,64.3051ZM43.23,61.6944l-3.2094-2.6933,3.2146-2.6978,3.2094,2.6933ZM41.6744,63,38.465,65.6932,35.2557,63l3.2093-2.6933ZM36.9091,66.999l-3.21,2.6939L30.49,67l3.21-2.694ZM33.7,61.6941l-3.21-2.6936L33.7,56.3073l3.21,2.6935ZM32.1439,63l-3.21,2.6941L25.7236,63l3.2106-2.6942Zm-7.9757-1.3047-3.2109-2.6942,3.2112-2.6943,3.21,2.6942Zm0,2.6109L27.3777,67,24.1669,69.694l-3.21-2.6932Zm9.5309,7.9975,3.215,2.6977-3.21,2.6937-3.2154-2.6975Zm1.5558-1.3055,3.21-2.6939,3.2147,2.6979-3.21,2.6937Zm7.98,1.31,3.21,2.6934-3.21,2.6934-3.21-2.6933Zm1.5559-1.3058L48,68.3085l3.2094,2.6933L48,73.6953Zm7.9747,1.3058,3.21,2.6935-3.21,2.6933-3.21-2.6934Zm1.5556-1.3056,3.2147-2.6979,3.21,2.6939-3.2149,2.6977Zm7.98,1.3015,3.21,2.6939L62.296,77.6949l-3.21-2.6937ZM68.6223,67l3.21-2.6935,3.2113,2.6948-3.21,2.6932Zm3.21-5.3044-3.2106-2.6943,3.21-2.6942,3.2112,2.6943Zm1.5553-6.694,3.2113-2.695,3.2106,2.6952-3.2107,2.6942Zm-1.5559-1.3056-3.2095-2.6931,3.2124-2.6959L75.0428,51ZM70.2755,55.001l-3.21,2.6941L63.856,55.0019l3.21-2.6938ZM62.3,53.6965l-3.2147-2.6977,3.21-2.6935L65.51,51.0027Zm-1.5555,1.3054-3.2095,2.6934-3.2146-2.6977L57.53,52.3042Zm-7.9795-1.31-3.2094-2.6933,3.2093-2.6933,3.2093,2.6932Zm-1.556,1.3057L48,57.6913l-3.2093-2.6934L48,52.3046Zm-7.9746-1.3057-3.2092-2.6934,3.2093-2.6932,3.2093,2.6933Zm-1.5554,1.3054-3.2146,2.6977-3.2095-2.6934L38.47,52.3042ZM33.7,53.6965l-3.21-2.6938,3.2149-2.6974,3.21,2.6935ZM32.144,55.0019l-3.2093,2.6932-3.21-2.6941,3.21-2.6929Zm-7.9752-1.3064L20.9572,51l3.2087-2.6937,3.2124,2.6959Zm-1.5559,1.3056-3.2112,2.6944L16.191,55.0013l3.2106-2.6952Zm-4.7671,4-1.627,1.3652L15.0451,56.651Zm1.5547,9.3055L22.611,71,20.2133,73.012l-1.3452-4.2586Zm2.7322,10.2959.4751.3984-.1233.1035A4.8916,4.8916,0,0,1,22.1327,78.6025Zm2.0307,1.7031.4089.3429a5.0739,5.0739,0,0,1-.5179-.2515Zm9.5408,0L34.5318,81h-1.655Zm9.5308,0L44.0626,81h-1.655Zm9.53,0L53.5924,81h-1.655Zm9.5308,0L63.1232,81h-1.655Zm9.54-.0008.1089.0914a5.1174,5.1174,0,0,1-.5188.2526Zm3.9508-7.2931L73.389,71,76.6,68.3066l.5323.4466Zm3.9946-12.6455-1.627-1.3652,2.8006-2.35Zm2.2959-7.2683-.7121.5976L78.1542,51l3.21-2.6935,1.76,1.478Zm-.7134-7.4024L80.5356,45h1.6569ZM77.4259,45l2.3825,2.0008-3.21,2.6938L73.39,47.001,75.7741,45Zm-5.5914.6953L71.0062,45H72.663ZM67.8954,45l2.3834,2.0009L67.066,49.6971,63.8512,47l2.3827-2Zm-5.6.6942L61.4682,45h1.6545ZM58.3558,45,60.74,47,57.53,49.6934,54.3207,47l2.3834-2Zm-5.591.6945L51.9372,45h1.6551ZM48.826,45l2.3832,2L48,49.6932,44.7908,47l2.3832-2Zm-5.5908.6945L42.4077,45h1.6551ZM39.2959,45l2.3834,2L38.47,49.6934,35.2605,47l2.3837-2Zm-5.5914.6942L32.8773,45h1.6545ZM29.7661,45l2.3827,2L28.934,49.6971l-3.2128-2.6962L28.1046,45Zm-5.6006.6953L23.337,45h1.6568ZM20.2259,45,22.61,47.001l-3.2088,2.6936-3.21-2.6938L18.5741,45Zm-5.59.6956L13.8075,45h1.6569Zm74.7768-3.2825A1.9844,1.9844,0,0,1,88,43c-19.9464-.0007-60.0605.0005-80,0A2.0111,2.0111,0,0,1,6.587,39.5869,1.984,1.984,0,0,1,8,39H45v1a3,3,0,0,0,6,0V39H88A2.0108,2.0108,0,0,1,89.4131,42.4131Z"></path></svg>